<svg id="visual" viewBox="0 0 900 600" width="900" height="600" xmlns="http://www.w3.org/2000/svg" xmlns:xlink="http://www.w3.org/1999/xlink" version="1.1"><g stroke-width="1" stroke-linejoin="bevel"><path d="M385 311L426 440L475 387Z" fill="#20262e" stroke="#20262e"></path><path d="M298 545L419 509L426 440Z" fill="#222831" stroke="#222831"></path><path d="M426 440L493 498L475 387Z" fill="#111213" stroke="#111213"></path><path d="M385 311L259 418L426 440Z" fill="#1e232a" stroke="#1e232a"></path><path d="M419 509L493 498L426 440Z" fill="#141517" stroke="#141517"></path><path d="M616 422L533 287L475 387Z" fill="#222831" stroke="#222831"></path><path d="M475 387L533 287L385 311Z" fill="#191c20" stroke="#191c20"></path><path d="M265 334L259 418L385 311Z" fill="#171a1d" stroke="#171a1d"></path><path d="M265 334L218 368L259 418Z" fill="#0f0f0f" stroke="#0f0f0f"></path><path d="M533 287L405 184L385 311Z" fill="#111213" stroke="#111213"></path><path d="M385 311L269 187L265 334Z" fill="#20262e" stroke="#20262e"></path><path d="M265 334L165 322L218 368Z" fill="#1c2127" stroke="#1c2127"></path><path d="M145 428L237 470L259 418Z" fill="#20262e" stroke="#20262e"></path><path d="M259 418L298 545L426 440Z" fill="#0f0f0f" stroke="#0f0f0f"></path><path d="M237 470L298 545L259 418Z" fill="#191c20" stroke="#191c20"></path><path d="M419 509L505 600L493 498Z" fill="#141517" stroke="#141517"></path><path d="M493 498L616 422L475 387Z" fill="#171a1d" stroke="#171a1d"></path><path d="M630 286L546 209L533 287Z" fill="#1c2127" stroke="#1c2127"></path><path d="M533 287L546 209L405 184Z" fill="#111213" stroke="#111213"></path><path d="M298 545L419 600L419 509Z" fill="#0f0f0f" stroke="#0f0f0f"></path><path d="M493 498L612 527L616 422Z" fill="#16171a" stroke="#16171a"></path><path d="M405 184L269 187L385 311Z" fill="#171a1d" stroke="#171a1d"></path><path d="M616 422L630 286L533 287Z" fill="#16171a" stroke="#16171a"></path><path d="M419 600L505 600L419 509Z" fill="#0f0f0f" stroke="#0f0f0f"></path><path d="M154 232L165 322L265 334Z" fill="#141517" stroke="#141517"></path><path d="M218 368L145 428L259 418Z" fill="#141517" stroke="#141517"></path><path d="M505 600L612 527L493 498Z" fill="#0f0f0f" stroke="#0f0f0f"></path><path d="M616 422L692 399L630 286Z" fill="#222831" stroke="#222831"></path><path d="M630 286L591 185L546 209Z" fill="#222831" stroke="#222831"></path><path d="M509 103L361 112L405 184Z" fill="#1e232a" stroke="#1e232a"></path><path d="M405 184L361 112L269 187Z" fill="#20262e" stroke="#20262e"></path><path d="M509 103L405 184L546 209Z" fill="#141517" stroke="#141517"></path><path d="M237 470L265 600L298 545Z" fill="#1c2127" stroke="#1c2127"></path><path d="M298 545L265 600L419 600Z" fill="#1b1e23" stroke="#1b1e23"></path><path d="M163 600L265 600L237 470Z" fill="#111213" stroke="#111213"></path><path d="M165 322L145 428L218 368Z" fill="#1c2127" stroke="#1c2127"></path><path d="M361 112L257 144L269 187Z" fill="#1b1e23" stroke="#1b1e23"></path><path d="M269 187L154 232L265 334Z" fill="#16171a" stroke="#16171a"></path><path d="M675 543L692 399L616 422Z" fill="#0f0f0f" stroke="#0f0f0f"></path><path d="M630 286L719 178L591 185Z" fill="#141517" stroke="#141517"></path><path d="M505 600L587 600L612 527Z" fill="#1c2127" stroke="#1c2127"></path><path d="M612 527L675 543L616 422Z" fill="#20262e" stroke="#20262e"></path><path d="M591 185L509 103L546 209Z" fill="#1c2127" stroke="#1c2127"></path><path d="M257 144L154 232L269 187Z" fill="#191c20" stroke="#191c20"></path><path d="M165 322L70 316L145 428Z" fill="#0f0f0f" stroke="#0f0f0f"></path><path d="M692 399L712 346L630 286Z" fill="#111213" stroke="#111213"></path><path d="M658 600L675 543L612 527Z" fill="#1c2127" stroke="#1c2127"></path><path d="M692 399L757 391L712 346Z" fill="#1b1e23" stroke="#1b1e23"></path><path d="M0 456L117 527L145 428Z" fill="#0f0f0f" stroke="#0f0f0f"></path><path d="M145 428L117 527L237 470Z" fill="#0f0f0f" stroke="#0f0f0f"></path><path d="M117 527L163 600L237 470Z" fill="#1b1e23" stroke="#1b1e23"></path><path d="M587 600L658 600L612 527Z" fill="#0f0f0f" stroke="#0f0f0f"></path><path d="M154 232L70 316L165 322Z" fill="#171a1d" stroke="#171a1d"></path><path d="M824 513L757 391L675 543Z" fill="#20262e" stroke="#20262e"></path><path d="M675 543L757 391L692 399Z" fill="#16171a" stroke="#16171a"></path><path d="M712 346L719 178L630 286Z" fill="#1b1e23" stroke="#1b1e23"></path><path d="M161 99L115 154L154 232Z" fill="#16171a" stroke="#16171a"></path><path d="M154 232L0 208L70 316Z" fill="#191c20" stroke="#191c20"></path><path d="M161 99L154 232L257 144Z" fill="#1e232a" stroke="#1e232a"></path><path d="M818 239L719 178L712 346Z" fill="#222831" stroke="#222831"></path><path d="M591 185L619 72L509 103Z" fill="#171a1d" stroke="#171a1d"></path><path d="M719 178L619 72L591 185Z" fill="#191c20" stroke="#191c20"></path><path d="M509 103L447 0L361 112Z" fill="#1b1e23" stroke="#1b1e23"></path><path d="M292 0L257 144L361 112Z" fill="#222831" stroke="#222831"></path><path d="M203 0L161 99L257 144Z" fill="#1b1e23" stroke="#1b1e23"></path><path d="M459 0L447 0L509 103Z" fill="#1b1e23" stroke="#1b1e23"></path><path d="M606 0L459 0L509 103Z" fill="#171a1d" stroke="#171a1d"></path><path d="M0 600L100 600L117 527Z" fill="#171a1d" stroke="#171a1d"></path><path d="M117 527L100 600L163 600Z" fill="#171a1d" stroke="#171a1d"></path><path d="M447 0L292 0L361 112Z" fill="#191c20" stroke="#191c20"></path><path d="M70 316L0 447L145 428Z" fill="#1c2127" stroke="#1c2127"></path><path d="M0 292L0 447L70 316Z" fill="#222831" stroke="#222831"></path><path d="M0 447L0 456L145 428Z" fill="#191c20" stroke="#191c20"></path><path d="M0 208L0 292L70 316Z" fill="#20262e" stroke="#20262e"></path><path d="M658 600L763 600L675 543Z" fill="#222831" stroke="#222831"></path><path d="M671 0L606 0L619 72Z" fill="#1c2127" stroke="#1c2127"></path><path d="M619 72L606 0L509 103Z" fill="#222831" stroke="#222831"></path><path d="M719 178L691 55L619 72Z" fill="#1e232a" stroke="#1e232a"></path><path d="M292 0L203 0L257 144Z" fill="#141517" stroke="#141517"></path><path d="M161 99L88 73L115 154Z" fill="#0f0f0f" stroke="#0f0f0f"></path><path d="M115 154L0 208L154 232Z" fill="#1c2127" stroke="#1c2127"></path><path d="M836 296L818 239L712 346Z" fill="#0f0f0f" stroke="#0f0f0f"></path><path d="M719 178L817 109L691 55Z" fill="#111213" stroke="#111213"></path><path d="M836 296L712 346L757 391Z" fill="#111213" stroke="#111213"></path><path d="M900 397L836 296L757 391Z" fill="#191c20" stroke="#191c20"></path><path d="M763 600L824 513L675 543Z" fill="#1c2127" stroke="#1c2127"></path><path d="M203 0L88 73L161 99Z" fill="#0f0f0f" stroke="#0f0f0f"></path><path d="M0 70L0 208L115 154Z" fill="#191c20" stroke="#191c20"></path><path d="M781 0L671 0L691 55Z" fill="#222831" stroke="#222831"></path><path d="M691 55L671 0L619 72Z" fill="#20262e" stroke="#20262e"></path><path d="M0 456L0 600L117 527Z" fill="#222831" stroke="#222831"></path><path d="M900 194L817 109L818 239Z" fill="#20262e" stroke="#20262e"></path><path d="M818 239L817 109L719 178Z" fill="#1e232a" stroke="#1e232a"></path><path d="M824 513L900 397L757 391Z" fill="#1c2127" stroke="#1c2127"></path><path d="M836 296L900 256L818 239Z" fill="#222831" stroke="#222831"></path><path d="M900 397L900 256L836 296Z" fill="#111213" stroke="#111213"></path><path d="M203 0L66 0L88 73Z" fill="#1c2127" stroke="#1c2127"></path><path d="M88 73L0 70L115 154Z" fill="#20262e" stroke="#20262e"></path><path d="M66 0L0 70L88 73Z" fill="#141517" stroke="#141517"></path><path d="M900 600L900 539L824 513Z" fill="#1b1e23" stroke="#1b1e23"></path><path d="M824 513L900 539L900 397Z" fill="#1c2127" stroke="#1c2127"></path><path d="M900 256L900 194L818 239Z" fill="#1c2127" stroke="#1c2127"></path><path d="M900 0L781 0L817 109Z" fill="#171a1d" stroke="#171a1d"></path><path d="M817 109L781 0L691 55Z" fill="#0f0f0f" stroke="#0f0f0f"></path><path d="M763 600L900 600L824 513Z" fill="#1c2127" stroke="#1c2127"></path><path d="M66 0L0 0L0 70Z" fill="#222831" stroke="#222831"></path><path d="M900 194L900 96L817 109Z" fill="#141517" stroke="#141517"></path><path d="M900 96L900 0L817 109Z" fill="#0f0f0f" stroke="#0f0f0f"></path></g></svg>